<svg xmlns="http://www.w3.org/2000/svg" viewBox="0 0 64 64">
  <defs>
    <linearGradient id="bg" x1="0" y1="0" x2="1" y2="1">
      <stop offset="0%" stop-color="#F7E8E4"/>
      <stop offset="100%" stop-color="#D8C4C0"/>
    </linearGradient>
  </defs>
  <rect width="64" height="64" rx="18" fill="url(#bg)"/>
  <circle cx="32" cy="32" r="21" fill="#FFF7F3" opacity="0.9"/>
  <path d="M32 18c3 0 6 1 8 3-1 3-3 5-6 6 3 0 6 1 8 3-1 4-4 7-8 8-4-1-7-4-8-8 2-2 5-3 8-3-3-1-5-3-6-6 2-2 5-3 8-3z" fill="#B8918E"/>
  <path d="M32 38c3 0 6 1 8 3-2 4-5 6-8 7-3-1-6-3-8-7 2-2 5-3 8-3z" fill="#8E6E6B"/>
</svg>
